# xmcd
#
# Track frame offsets:
#	300
#	11200
#	23395
#	34671
#	45135
#	56841
#	65659
#	76209
#	90209
#	102806
#	117324
#
# Disc length: 1895 seconds
#
# Revision: 1
# Processed by: cddbd v1.5.2PL0 Copyright (c) Steve Scherf et al.
# Submitted via: audiograbber 1.83.01
#
DISCID=7907630b
DTITLE=Michi the black Harlekin - Horrorpunk Holiday
DYEAR=2015
DGENRE=
TTITLE0=Horrorpunk Holiday
TTITLE1=Dath Valey I
TTITLE2=Dath Valey II
TTITLE3=I´m Coming Home
TTITLE4=The Nameless Hero
TTITLE5=One of these Days
TTITLE6=Cowboy, Drive the Cattle
TTITLE7=Rocky PT.2
TTITLE8=13 Black Cats
TTITLE9=A Man Named Bill
TTITLE10=Plague
EXTD=
EXTT0=
EXTT1=
EXTT2=
EXTT3=
EXTT4=
EXTT5=
EXTT6=
EXTT7=
EXTT8=
EXTT9=
EXTT10=
PLAYORDER=
